<svg xmlns="http://www.w3.org/2000/svg" viewBox="0 0 39.8 48.5">
  <defs>
    <style>
      .cls-1 {
        fill: #3f3f3f;
      }
    </style>
  </defs>
  <title>Recurso 169</title>
  <g id="Capa_2" data-name="Capa 2">
    <g id="Capa_1-2" data-name="Capa 1">
      <g>
        <path class="cls-1" d="M19.9,3.8a1,1,0,0,0-1,.9,1.1,1.1,0,0,0,.9,1,1,1,0,0,0,1-1A.9.9,0,0,0,19.9,3.8Z"/>
        <path class="cls-1" d="M38.8,5.7A4.7,4.7,0,0,1,34.1.9a.9.9,0,0,0-1-.9H6.6a.9.9,0,0,0-.9.9A4.7,4.7,0,0,1,.9,5.7a.9.9,0,0,0-.9.9V22.1A27.4,27.4,0,0,0,19.6,48.4h.6A27.4,27.4,0,0,0,39.8,22.1V6.6A1,1,0,0,0,38.8,5.7Zm-.9,16.4a25.4,25.4,0,0,1-18,24.4,25.5,25.5,0,0,1-18-24.4V7.5A6.6,6.6,0,0,0,7.5,1.9H32.3a6.6,6.6,0,0,0,5.6,5.6Z"/>
        <path class="cls-1" d="M35.4,8.8A9,9,0,0,1,31,4.4a.9.9,0,0,0-.9-.6H23.7a.9.9,0,0,0-1,.9.9.9,0,0,0,1,1h5.8a10.5,10.5,0,0,0,4.6,4.5V22.1A21.6,21.6,0,0,1,19.9,42.5,21.5,21.5,0,0,1,5.7,22.1V10.2a10.8,10.8,0,0,0,4.5-4.5h5.9a.9.9,0,0,0,.9-1,.9.9,0,0,0-.9-.9H9.6a.8.8,0,0,0-.8.6A9.4,9.4,0,0,1,4.4,8.8a.8.8,0,0,0-.6.8V22.1A23.5,23.5,0,0,0,19.6,44.4h.6A23.5,23.5,0,0,0,36,22.1V9.6A.9.9,0,0,0,35.4,8.8Z"/>
        <path class="cls-1" d="M19.9,13.8a8.5,8.5,0,0,0-8.5,8.5,8.5,8.5,0,1,0,17,0A8.5,8.5,0,0,0,19.9,13.8Zm0,15.2a6.7,6.7,0,1,1,6.6-6.7A6.6,6.6,0,0,1,19.9,29Z"/>
        <path class="cls-1" d="M24.3,19.8a.9.9,0,0,0-1.3,0l-4.1,4-1.2-1.2a.9.9,0,0,0-1.3,0,1,1,0,0,0,0,1.4l1.9,1.8a.7.7,0,0,0,.6.3.9.9,0,0,0,.7-.3l4.7-4.7A.9.9,0,0,0,24.3,19.8Z"/>
      </g>
    </g>
  </g>
</svg>
