<svg xmlns="http://www.w3.org/2000/svg" viewBox="0 0 45.4 45.4">
  <defs>
    <style>
      .cls-1 {
        fill: #3f3f3f;
      }
    </style>
  </defs>
  <title>Recurso 164</title>
  <g id="Capa_2" data-name="Capa 2">
    <g id="Capa_1-2" data-name="Capa 1">
      <g id="Bank">
        <g>
          <path class="cls-1" d="M44.7,40.9h-.8V38.6a.7.7,0,0,0-.7-.7h-.8V35.6a.8.8,0,0,0-.7-.8h-.8V33.3a.7.7,0,0,0-.8-.7h-.7V22.7h.7a.7.7,0,0,0,.8-.7V20.4a.8.8,0,0,0,.8-.7V17.4h.7a.8.8,0,0,0,.8-.7v-1a2,2,0,0,0,2.2-1.8v-.2a2.3,2.3,0,0,0-1-1.9L23.1.1h-.8L1.1,11.8a2.1,2.1,0,0,0-.8,2.9,2,2,0,0,0,1.8,1h.2v1a.7.7,0,0,0,.7.7h.8v2.3a.7.7,0,0,0,.7.7V22a.8.8,0,0,0,.8.7h.8v9.9H5.3a.8.8,0,0,0-.8.7v1.5H3.8a.9.9,0,0,0-.8.8v2.3H2.3a.8.8,0,0,0-.8.7v2.3H.8a.7.7,0,0,0-.8.8v3a.7.7,0,0,0,.8.7H44.7a.7.7,0,0,0,.7-.7v-3A.7.7,0,0,0,44.7,40.9Zm-20.3-3a2.2,2.2,0,0,0,.6-1.5v-.6a5,5,0,0,0,2.7-3,5.7,5.7,0,0,0-.6-4.9,5.3,5.3,0,0,0-4.4-2.2,1.3,1.3,0,0,1-1.2-.6,1.4,1.4,0,0,1-.2-1.4,1.6,1.6,0,0,1,.9-.9,1.4,1.4,0,0,1,1.9.9h0a1.9,1.9,0,0,0,2.4,1.2,1.8,1.8,0,0,0,1.2-2.4h0a5.3,5.3,0,0,0-2.7-3v-.5a2.2,2.2,0,0,0-.6-1.5H31v2.3a.8.8,0,0,0,.8.7V22a.7.7,0,0,0,.8.7h.7v9.9h-.7a.7.7,0,0,0-.8.7v1.5H31a.8.8,0,0,0-.7.8v2.3Zm-10-3.1h-.8V33.3a.7.7,0,0,0-.7-.7h-.8V22.7h.8a.7.7,0,0,0,.7-.7V20.4a.8.8,0,0,0,.8-.7V17.4H21a2.8,2.8,0,0,0-.6,1.5v.5a5.9,5.9,0,0,0-2.7,3.1,6.1,6.1,0,0,0,.6,4.9,5.1,5.1,0,0,0,4.4,2.1,1.4,1.4,0,0,1,1.2.7,1.4,1.4,0,0,1,.2,1.4,1.3,1.3,0,0,1-.9.9,1.5,1.5,0,0,1-1.9-.9,1.8,1.8,0,0,0-2.4-1.2,1.9,1.9,0,0,0-1.2,2.4h0a5.5,5.5,0,0,0,2.7,2.9v.6a2.8,2.8,0,0,0,.6,1.5H15.1V35.6A.8.8,0,0,0,14.4,34.8ZM20.3,26a3.1,3.1,0,0,0,2.5,1.3,3.3,3.3,0,0,1,3,1.4,4.2,4.2,0,0,1,.5,3.6A3.7,3.7,0,0,1,24,34.6a.8.8,0,0,0-.5.7v1.1a.8.8,0,0,1-.8.7.7.7,0,0,1-.7-.7V35.3a.8.8,0,0,0-.5-.7,3.5,3.5,0,0,1-2.3-2.3.2.2,0,0,1,0-.3l.3-.2c.2,0,.3.1.4.3a3,3,0,0,0,3.8,1.8,3,3,0,0,0,1.5-4.6A3.3,3.3,0,0,0,22.7,28a3.4,3.4,0,0,1-3.1-1.4,4.2,4.2,0,0,1-.4-3.6,3.3,3.3,0,0,1,2.3-2.3A.8.8,0,0,0,22,20V18.9a.7.7,0,0,1,.7-.7.8.8,0,0,1,.8.7V20a.8.8,0,0,0,.5.7,3.6,3.6,0,0,1,2.3,2.2c0,.2,0,.3-.1.4s-.1.2-.3.2a.3.3,0,0,1-.3-.3,3,3,0,0,0-3.9-1.8,2.9,2.9,0,0,0-1.8,1.8A2.8,2.8,0,0,0,20.3,26ZM31.8,36.4h9.1v1.5H31.8Zm1.5-1.6v-.7h6.1v.7Zm4.6-2.2H34.8V22.7h3.1Zm1.5-11.4H33.3v-.8h6.1Zm.7-2.3H32.6V17.4h7.5Zm-36.3-3v-.8l1.3-.7H40.4l1.3.7v.8Zm4-3L22.7,4.7l14.9,8.2Zm-6,1.2c-.2-.1-.3-.2-.3-.4a.5.5,0,0,1,.3-.5L22.7,1.6,43.6,13.2a.5.5,0,0,1,.3.5.5.5,0,0,1-.5.5h-.3L23.1,3.1a.9.9,0,0,0-.7,0L2.4,14.2A.5.5,0,0,1,1.8,14.1Zm11.1,3.3v1.5H5.3V17.4Zm-.8,3v.8h-6v-.8ZM7.6,22.7h3v9.9h-3ZM6.1,34.1h6v.7h-6ZM4.5,36.4h9.1v1.5H4.5ZM3,39.4H42.4v1.5H3Zm40.9,4.5H1.5V42.4H43.9Z"/>
          <path class="cls-1" d="M9.1,23.5a.8.8,0,0,0-.8.7V31a.8.8,0,0,0,.8.8.7.7,0,0,0,.7-.8V24.2A.7.7,0,0,0,9.1,23.5Z"/>
          <path class="cls-1" d="M36.4,31.8a.7.7,0,0,0,.7-.8V24.2a.7.7,0,0,0-.7-.7.7.7,0,0,0-.8.7V31A.7.7,0,0,0,36.4,31.8Z"/>
          <path class="cls-1" d="M19.7,9.1a3,3,0,0,0,6,0,3,3,0,1,0-6,0Zm4.5,0a1.5,1.5,0,0,1-1.5,1.5,1.5,1.5,0,0,1,0-3A1.5,1.5,0,0,1,24.2,9.1Z"/>
        </g>
      </g>
    </g>
  </g>
</svg>
