<svg xmlns="http://www.w3.org/2000/svg" viewBox="0 0 48.5 48.4">
  <defs>
    <style>
      .cls-1 {
        fill: #3f3f3f;
      }
    </style>
  </defs>
  <title>Recurso 168</title>
  <g id="Capa_2" data-name="Capa 2">
    <g id="Capa_1-2" data-name="Capa 1">
      <g id="_Grupo_" data-name="&lt;Grupo&gt;">
        <g id="_Grupo_2" data-name="&lt;Grupo&gt;">
          <path id="_Trazado_" data-name="&lt;Trazado&gt;" class="cls-1" d="M16.7,17.9a.9.9,0,0,0-1,1v1.9a1,1,0,0,0,1,1,1,1,0,0,0,.9-1V18.9A.9.9,0,0,0,16.7,17.9Z"/>
          <path id="_Trazado_2" data-name="&lt;Trazado&gt;" class="cls-1" d="M20.4,17.9a.9.9,0,0,0-.9,1v1.9a1,1,0,0,0,.9,1,1,1,0,0,0,1-1V18.9A.9.9,0,0,0,20.4,17.9Z"/>
          <path id="_Trazado_3" data-name="&lt;Trazado&gt;" class="cls-1" d="M24.2,17.9a.9.9,0,0,0-.9,1v1.9a1,1,0,0,0,.9,1,1,1,0,0,0,1-1V18.9A.9.9,0,0,0,24.2,17.9Z"/>
          <path id="_Trazado_4" data-name="&lt;Trazado&gt;" class="cls-1" d="M28,17.9a.9.9,0,0,0-.9,1v1.9a1,1,0,0,0,.9,1,1.1,1.1,0,0,0,1-1V18.9A1,1,0,0,0,28,17.9Z"/>
          <path id="_Trazado_5" data-name="&lt;Trazado&gt;" class="cls-1" d="M31.8,17.9a.9.9,0,0,0-.9,1v1.9a1,1,0,0,0,.9,1,1.1,1.1,0,0,0,1-1V18.9A1,1,0,0,0,31.8,17.9Z"/>
          <path id="_Trazado_6" data-name="&lt;Trazado&gt;" class="cls-1" d="M11,42.8a.9.9,0,0,0-.7.3.7.7,0,0,0-.3.6,1,1,0,0,0,1,1,1.1,1.1,0,0,0,.7-.3,1.4,1.4,0,0,0,.2-.7,1.1,1.1,0,0,0-.2-.6A1.1,1.1,0,0,0,11,42.8Z"/>
          <path id="_Trazado_7" data-name="&lt;Trazado&gt;" class="cls-1" d="M11,35a1,1,0,0,0-1,.9V40a1.1,1.1,0,0,0,1,1,1,1,0,0,0,.9-1V35.9A.9.9,0,0,0,11,35Z"/>
          <path id="_Trazado_8" data-name="&lt;Trazado&gt;" class="cls-1" d="M16.3,35a1,1,0,0,0-1,.9v7.8a1,1,0,0,0,1,1,.9.9,0,0,0,.9-1V35.9A.9.9,0,0,0,16.3,35Z"/>
          <path id="_Trazado_9" data-name="&lt;Trazado&gt;" class="cls-1" d="M21.6,35a1,1,0,0,0-1,.9v7.8a1,1,0,0,0,1,1,.9.9,0,0,0,.9-1V35.9A.9.9,0,0,0,21.6,35Z"/>
          <path id="_Trazado_10" data-name="&lt;Trazado&gt;" class="cls-1" d="M26.9,35a1,1,0,0,0-1,.9v7.8a1,1,0,0,0,1,1,.9.9,0,0,0,.9-1V35.9A.9.9,0,0,0,26.9,35Z"/>
          <path id="_Trazado_11" data-name="&lt;Trazado&gt;" class="cls-1" d="M32.2,35a1,1,0,0,0-1,.9v7.8a1,1,0,0,0,1,1,.9.9,0,0,0,.9-1V35.9A.9.9,0,0,0,32.2,35Z"/>
          <path id="_Trazado_12" data-name="&lt;Trazado&gt;" class="cls-1" d="M37.5,35l-.7.2a1.1,1.1,0,0,0-.3.7,1,1,0,0,0,1,1,1.1,1.1,0,0,0,.7-.3,1.4,1.4,0,0,0,.2-.7,1.9,1.9,0,0,0-.2-.7Z"/>
          <path id="_Trazado_13" data-name="&lt;Trazado&gt;" class="cls-1" d="M37.5,38.7a1.1,1.1,0,0,0-1,1v4a1,1,0,0,0,1,1,.9.9,0,0,0,.9-1v-4A1,1,0,0,0,37.5,38.7Z"/>
          <path id="_Trazado_14" data-name="&lt;Trazado&gt;" class="cls-1" d="M14.8,25.8a1,1,0,0,0-1,1v1.9a.9.9,0,0,0,1,1,.9.9,0,0,0,.9-1V26.8A1,1,0,0,0,14.8,25.8Z"/>
          <path id="_Trazado_15" data-name="&lt;Trazado&gt;" class="cls-1" d="M18.6,25.8a1,1,0,0,0-1,1v1.9a.9.9,0,0,0,1,1,.9.9,0,0,0,.9-1V26.8A1,1,0,0,0,18.6,25.8Z"/>
          <path id="_Trazado_16" data-name="&lt;Trazado&gt;" class="cls-1" d="M22.3,25.8a1,1,0,0,0-.9,1v1.9a.9.9,0,0,0,.9,1,.9.9,0,0,0,1-1V26.8A1,1,0,0,0,22.3,25.8Z"/>
          <path id="_Trazado_17" data-name="&lt;Trazado&gt;" class="cls-1" d="M26.1,25.8a1,1,0,0,0-.9,1v1.9a.9.9,0,0,0,.9,1,1,1,0,0,0,1-1V26.8A1.1,1.1,0,0,0,26.1,25.8Z"/>
          <path id="_Trazado_18" data-name="&lt;Trazado&gt;" class="cls-1" d="M29.9,25.8a1,1,0,0,0-.9,1v1.9a.9.9,0,0,0,.9,1,1,1,0,0,0,1-1V26.8A1.1,1.1,0,0,0,29.9,25.8Z"/>
          <path id="_Trazado_19" data-name="&lt;Trazado&gt;" class="cls-1" d="M33.7,25.8a1,1,0,0,0-.9,1v1.9a.9.9,0,1,0,1.8,0V26.8A1,1,0,0,0,33.7,25.8Z"/>
          <path id="_Trazado_compuesto_" data-name="&lt;Trazado compuesto&gt;" class="cls-1" d="M47.5,33.7H43.7V31.6a1,1,0,0,0-.9-1H38.4V24.2h.7a.9.9,0,0,0,.9-.9.9.9,0,0,0-.9-1H36.4V17.4a1.1,1.1,0,0,0,.9-1,.9.9,0,0,0-.9-.9H34v-.8a9.9,9.9,0,0,0-8.8-9.8V.9a.9.9,0,0,0-1-.9.9.9,0,0,0-.9.9v4a9.8,9.8,0,0,0-8.8,9.8v.8H12.1a.9.9,0,0,0-.9.9,1,1,0,0,0,.8,1v4.9H9.4a.9.9,0,0,0-1,1,.9.9,0,0,0,1,.9H10v6.4H5.7a1.1,1.1,0,0,0-1,1v2.1H.9a.9.9,0,0,0-.9.9V47.5a.9.9,0,0,0,.9.9H47.5a1,1,0,0,0,1-.9V34.6A1,1,0,0,0,47.5,33.7Zm-31.2-19a7.9,7.9,0,0,1,15.8,0v.8H16.3Zm-2.4,2.7H34.6v4.9H13.9Zm-2,6.8H36.5v6.4H11.9ZM1.9,35.6H4.7V46.5H1.9Zm4.7-1V32.5H41.8v14H6.6Zm40,11.9H43.7V35.6h2.9Z"/>
        </g>
      </g>
    </g>
  </g>
</svg>
