<svg xmlns="http://www.w3.org/2000/svg" viewBox="0 0 35 49.1">
  <defs>
    <style>
      .cls-1 {
        fill: #3f3f3f;
      }
    </style>
  </defs>
  <title>Recurso 167</title>
  <g id="Capa_2" data-name="Capa 2">
    <g id="Capa_1-2" data-name="Capa 1">
      <g>
        <path class="cls-1" d="M.2,22.3a2.5,2.5,0,0,0,.7,2.8c1.6,1.6,4.8,7.2,6.4,11.2a21.1,21.1,0,0,0,5.2,7.1,4,4,0,0,1,1.2,2.9v.3a2.5,2.5,0,0,0,2.5,2.5H29.3a2.5,2.5,0,0,0,2.4-2.5V44.1a1.4,1.4,0,0,1,.2-.6C35,40.8,35,36.2,35,36V23a3.4,3.4,0,0,0-3-3.4,4.1,4.1,0,0,0-1.9.5V18.8A3.3,3.3,0,0,0,25.2,16a3.5,3.5,0,0,0-1.8-2.6,3.4,3.4,0,0,0-3.1.1V12.2a6.6,6.6,0,0,0,3.3-5.6A6.6,6.6,0,0,0,17,0a6.5,6.5,0,0,0-6.5,6.6,6.5,6.5,0,0,0,3.2,5.6V25.4a8.9,8.9,0,0,1-.3,2.8,1.2,1.2,0,0,1-.6.6,1.1,1.1,0,0,1-.8-.2,12,12,0,0,1-1.7-2.1c-1.4-2.1-4.9-6-7.2-6A2.9,2.9,0,0,0,.2,22.3ZM12.1,6.6a4.9,4.9,0,1,1,9.8,0,4.8,4.8,0,0,1-1.6,3.6V6.6a3.3,3.3,0,1,0-6.6,0v3.6A4.8,4.8,0,0,1,12.1,6.6ZM9,27.4a11.2,11.2,0,0,0,1.9,2.4,2.7,2.7,0,0,0,2.3.5,2.5,2.5,0,0,0,1.7-1.6,12.6,12.6,0,0,0,.5-3.3V6.6a1.6,1.6,0,1,1,3.2,0V23.7a.8.8,0,0,0,.9.8.8.8,0,0,0,.8-.8V16.4a1.7,1.7,0,0,1,1.6-1.7,1.8,1.8,0,0,1,1.7,1.7v7.3a.7.7,0,0,0,.8.8.8.8,0,0,0,.8-.8V18.8a1.6,1.6,0,0,1,1.6-1.6,1.7,1.7,0,0,1,1.7,1.6v5.7a.8.8,0,0,0,.8.9.9.9,0,0,0,.8-.9V22.9a2.1,2.1,0,0,1,.5-1.2,1.4,1.4,0,0,1,1.2-.4A1.8,1.8,0,0,1,33.4,23V36s-.1,4.1-2.6,6.3a2.9,2.9,0,0,0-.7,1.8v2.5a.8.8,0,0,1-.8.8H16.2a.7.7,0,0,1-.8-.8v-.3a5.8,5.8,0,0,0-1.7-4.1c-1.4-1.3-3.9-3.9-4.9-6.5-1.7-4.2-5-10-6.7-11.7s-.6-.8-.4-1.1a1.6,1.6,0,0,1,1.4-.8C4.2,22.1,7.2,24.8,9,27.4Z"/>
        <path class="cls-1" d="M17.8,45.8h.8a.9.9,0,0,0,.9-.8.8.8,0,0,0-.9-.8h-.8a.8.8,0,0,0-.8.8A.9.9,0,0,0,17.8,45.8Z"/>
        <path class="cls-1" d="M21.9,45.8h5.7a.9.9,0,0,0,.9-.8.8.8,0,0,0-.9-.8H21.9a.8.8,0,0,0-.8.8A.9.9,0,0,0,21.9,45.8Z"/>
        <path class="cls-1" d="M10.5,13.5a.8.8,0,0,0,.7-.5.6.6,0,0,0-.1-.8,8.1,8.1,0,0,1-.4-10.8,1,1,0,0,0,.2-.9,1.3,1.3,0,0,0-.7-.5.8.8,0,0,0-.7.3,9.8,9.8,0,0,0,.4,13Z"/>
        <path class="cls-1" d="M24.6,11.4h.7c.2,0,.3-.2.4-.4A9.7,9.7,0,0,0,24.6.3a1.1,1.1,0,0,0-.8-.3,1,1,0,0,0-.6.5,1,1,0,0,0,.1.9,8.1,8.1,0,0,1,1,8.9A.8.8,0,0,0,24.6,11.4Z"/>
      </g>
    </g>
  </g>
</svg>
