<svg xmlns="http://www.w3.org/2000/svg" viewBox="0 0 51.7 48.5">
  <defs>
    <style>
      .cls-1 {
        fill: #3f3f3f;
      }
    </style>
  </defs>
  <title>Recurso 165</title>
  <g id="Capa_2" data-name="Capa 2">
    <g id="Capa_1-2" data-name="Capa 1">
      <g>
        <path class="cls-1" d="M40,22.2a1,1,0,0,0-1,1,.9.9,0,0,0,1,1,1,1,0,0,0,1-1A1.1,1.1,0,0,0,40,22.2Z"/>
        <path class="cls-1" d="M11.7,22.2a1.1,1.1,0,0,0-1,1,1,1,0,0,0,1,1,.9.9,0,0,0,1-1A1,1,0,0,0,11.7,22.2Z"/>
        <path class="cls-1" d="M34.9,26.3h-5V21.2a1,1,0,0,0-1-1H22.8a1,1,0,0,0-1,1v5.1h-5a.9.9,0,0,0-1,1v6a.9.9,0,0,0,1,1h5v5.1a1.1,1.1,0,0,0,1,1h6.1a1.1,1.1,0,0,0,1-1V34.3h5a.9.9,0,0,0,1-1v-6A.9.9,0,0,0,34.9,26.3Zm-1,6h-5a1,1,0,0,0-1,1v5.1H23.8V33.3a1,1,0,0,0-1-1h-5v-4h5a1,1,0,0,0,1-1V22.2h4.1v5.1a1,1,0,0,0,1,1h5Z"/>
        <path class="cls-1" d="M46.6,12.1H39v-6A6.1,6.1,0,0,0,32.9,0H18.8a6.1,6.1,0,0,0-6.1,6.1v6H5a5.1,5.1,0,0,0-5,5.1V43.4a5.1,5.1,0,0,0,5,5.1H46.6a5.1,5.1,0,0,0,5.1-5.1V17.2A5.1,5.1,0,0,0,46.6,12.1Zm-31.9-6A4.1,4.1,0,0,1,18.8,2H32.9A4.1,4.1,0,0,1,37,6.1v6H34.9v-5a3,3,0,0,0-3-3.1H19.8a3,3,0,0,0-3,3.1v5H14.7Zm18.2,1v5H18.8v-5a.9.9,0,0,1,1-1H31.9A.9.9,0,0,1,32.9,7.1ZM6.7,46.4H5a3,3,0,0,1-3-3V17.2a3.1,3.1,0,0,1,3-3.1H6.7Zm36.3,0H41V27.3a1,1,0,0,0-1-1,.9.9,0,0,0-1,1V46.4H12.7V27.3a.9.9,0,0,0-1-1,1,1,0,0,0-1,1V46.4h-2V14.1h2v5.1a1.1,1.1,0,0,0,1,1,1,1,0,0,0,1-1V14.1H39v5.1a1,1,0,0,0,1,1,1.1,1.1,0,0,0,1-1V14.1h2Zm6.7-3a3,3,0,0,1-3.1,3H45V14.1h1.6a3.1,3.1,0,0,1,3.1,3.1Z"/>
      </g>
    </g>
  </g>
</svg>
