<svg xmlns="http://www.w3.org/2000/svg" viewBox="0 0 51.1 51.1">
  <defs>
    <style>
      .cls-1 {
        fill: #3f3f3f;
      }
    </style>
  </defs>
  <title>Recurso 166</title>
  <g id="Capa_2" data-name="Capa 2">
    <g id="Capa_1-2" data-name="Capa 1">
      <g>
        <path class="cls-1" d="M40,42.6H11.1a.8.8,0,0,0-.9.8v4a3.7,3.7,0,0,0,3.6,3.7H37.2a3.8,3.8,0,0,0,3.7-3.7v-4A.8.8,0,0,0,40,42.6Zm-.8,4.8a2,2,0,0,1-2,2H13.8a2,2,0,0,1-1.9-2V44.3H39.2Z"/>
        <path class="cls-1" d="M28.1,46H23a.8.8,0,0,0-.9.8.9.9,0,0,0,.9.9h5.1a.8.8,0,0,0,.8-.9A.7.7,0,0,0,28.1,46Z"/>
        <path class="cls-1" d="M35.7,46H32.3a.8.8,0,0,0-.8.8.9.9,0,0,0,.8.9h3.4a.9.9,0,0,0,.9-.9A.8.8,0,0,0,35.7,46Z"/>
        <path class="cls-1" d="M18.7,46H15.3a.8.8,0,0,0-.8.8.9.9,0,0,0,.8.9h3.4a.9.9,0,0,0,.9-.9A.8.8,0,0,0,18.7,46Z"/>
        <path class="cls-1" d="M37.2,0H13.8a3.6,3.6,0,0,0-3.6,3.6V7.7a.9.9,0,0,0,.9.8H40a.9.9,0,0,0,.9-.8V3.6A3.7,3.7,0,0,0,37.2,0Zm2,6.8H11.9V3.6a2,2,0,0,1,1.9-1.9H37.2a2,2,0,0,1,2,1.9V6.8Z"/>
        <path class="cls-1" d="M29.8,3.4H21.3a.9.9,0,0,0-.9.9.9.9,0,0,0,.9.8h8.5a.8.8,0,0,0,.8-.8A.8.8,0,0,0,29.8,3.4Z"/>
        <path class="cls-1" d="M40,6.8H11.1a.9.9,0,0,0-.9.9V43.4a.9.9,0,0,0,.9.9H40a.9.9,0,0,0,.9-.9V7.7A.9.9,0,0,0,40,6.8Zm-.8,35.8H11.9V8.5H39.2V42.6Z"/>
        <path class="cls-1" d="M45.1,19.3a.9.9,0,0,0-1.1-.5.9.9,0,0,0-.6,1,18.8,18.8,0,0,1,0,11.5.9.9,0,0,0,.6,1h.3a.9.9,0,0,0,.8-.7,21.8,21.8,0,0,0,0-12.4Z"/>
        <path class="cls-1" d="M7.6,31.3a22.5,22.5,0,0,1-.8-5.8,22.4,22.4,0,0,1,.8-5.7.7.7,0,0,0-.6-1,.7.7,0,0,0-1,.5A21.8,21.8,0,0,0,6,31.7a.8.8,0,0,0,.8.7h.3A.7.7,0,0,0,7.6,31.3Z"/>
        <path class="cls-1" d="M1.7,25.5a24.1,24.1,0,0,1,1.6-9,.8.8,0,0,0-1.5-.7A23.7,23.7,0,0,0,0,25.5a23.3,23.3,0,0,0,1.8,9.7c.1.4.4.5.8.5h.3a.9.9,0,0,0,.4-1.2A23.4,23.4,0,0,1,1.7,25.5Z"/>
        <path class="cls-1" d="M49.3,15.8a.8.8,0,0,0-1.1-.4.8.8,0,0,0-.5,1.1,22.2,22.2,0,0,1,1.7,9,21.6,21.6,0,0,1-1.7,9,.9.9,0,0,0,.5,1.2h.3a.7.7,0,0,0,.8-.5,25.1,25.1,0,0,0,1.8-9.7A25.4,25.4,0,0,0,49.3,15.8Z"/>
        <path class="cls-1" d="M33.2,34.9H23a.9.9,0,0,0-.9.8.9.9,0,0,0,.9.9H33.2a.8.8,0,0,0,.8-.9A.8.8,0,0,0,33.2,34.9Z"/>
        <path class="cls-1" d="M19.6,34.9H17.9a.9.9,0,0,0-.9.8.9.9,0,0,0,.9.9h1.7a.9.9,0,0,0,.8-.9A.9.9,0,0,0,19.6,34.9Z"/>
        <path class="cls-1" d="M22.1,38.3H17.9a.9.9,0,0,0-.9.9.9.9,0,0,0,.9.8h4.2a.9.9,0,0,0,.9-.8A.9.9,0,0,0,22.1,38.3Z"/>
        <path class="cls-1" d="M33.2,38.3H30.6a.9.9,0,0,0-.8.9.9.9,0,0,0,.8.8h2.6a.8.8,0,0,0,.8-.8A.8.8,0,0,0,33.2,38.3Z"/>
        <path class="cls-1" d="M27.2,38.3H25.5a.9.9,0,0,0-.8.9.9.9,0,0,0,.8.8h1.7a.9.9,0,0,0,.9-.8A.9.9,0,0,0,27.2,38.3Z"/>
        <path class="cls-1" d="M25.5,11.1A10.2,10.2,0,1,0,35.7,21.3,10.2,10.2,0,0,0,25.5,11.1Zm0,18.7A8.5,8.5,0,1,1,34,21.3,8.5,8.5,0,0,1,25.5,29.8Z"/>
        <path class="cls-1" d="M25.5,14.5a3.4,3.4,0,1,0,0,6.8,3.4,3.4,0,0,0,0-6.8Zm0,5.1a1.8,1.8,0,0,1-1.7-1.7,1.7,1.7,0,0,1,1.7-1.7,1.6,1.6,0,0,1,1.7,1.7A1.7,1.7,0,0,1,25.5,19.6Z"/>
        <path class="cls-1" d="M33.8,26.2c-1.6-2-4.8-3.2-8.3-3.2s-6.7,1.2-8.3,3.2a.9.9,0,0,0,0,1,10.1,10.1,0,0,0,8.3,4.3,10.5,10.5,0,0,0,8.4-4.3A.8.8,0,0,0,33.8,26.2Zm-8.3,3.6A8.3,8.3,0,0,1,19,26.7a10.5,10.5,0,0,1,6.5-2,10.3,10.3,0,0,1,6.5,2A8.3,8.3,0,0,1,25.5,29.8Z"/>
      </g>
    </g>
  </g>
</svg>
