<svg xmlns="http://www.w3.org/2000/svg" viewBox="0 0 48.5 48.7">
  <defs>
    <style>
      .cls-1 {
        fill: #3f3f3f;
      }
    </style>
  </defs>
  <title>Recurso 163</title>
  <g id="Capa_2" data-name="Capa 2">
    <g id="Capa_1-2" data-name="Capa 1">
      <g id="Page-1">
        <g id="_020---Gas-Hob" data-name="020---Gas-Hob">
          <path id="Shape" class="cls-1" d="M15.3,15.9h.4a.8.8,0,0,0,.7-.4A29.9,29.9,0,0,1,23,7.2.8.8,0,0,0,21.9,6,30.9,30.9,0,0,0,15,14.8.8.8,0,0,0,15.3,15.9Z" transform="translate(0 0)"/>
          <path id="Shape-2" data-name="Shape" class="cls-1" d="M.8,48.2l46.8.5a.8.8,0,0,0,.9-.8.9.9,0,0,0-.8-.8h-.8V39a2.2,2.2,0,0,0-.6-1.7l-3.7-3.7a2.3,2.3,0,0,0-2.3-.7,2.4,2.4,0,0,0-1.8,1.7,2.4,2.4,0,0,0,.6,2.3l3,3.1v7.1H40.4V43.8a4.8,4.8,0,0,0-4.8-4.9H29.2V35.6a11.5,11.5,0,0,0,2.5-1.2h.1a14.6,14.6,0,0,0,2.8-2.1A14.8,14.8,0,0,0,39.1,22C39.2,10.6,27.1,1.3,25.7.3a1.7,1.7,0,0,0-1.9,0c-1.3,1-13.4,9.7-13.8,21a14.6,14.6,0,0,0,4,10.5,17.6,17.6,0,0,0,3,2.4h0a14.2,14.2,0,0,0,2.5,1.2v3.3H13a5,5,0,0,0-4.9,4.8v3.3H6.5v-7l3-3a2.2,2.2,0,0,0,.6-2.3,2.4,2.4,0,0,0-1.7-1.8,2.4,2.4,0,0,0-2.3.6L2.4,36.8a2.8,2.8,0,0,0-.7,1.7v8.1H.8a.8.8,0,0,0-.8.8A.9.9,0,0,0,.8,48.2Zm42.7-9.1-3.2-3.3a.8.8,0,1,1,1.1-1.1l3.7,3.7a.7.7,0,0,1,.2.6v8.1H43.6V39.7a.8.8,0,0,0-.2-.6ZM18,32.9a8.3,8.3,0,0,1-1.6-5.3c.2-5.9,5.4-11.2,8.2-13.6,2.8,2.5,8,7.9,7.9,14a8.5,8.5,0,0,1-1.7,5.1l-1.9.9a6,6,0,0,0,1.2-3.6c0-4.2-3.5-7.8-5-9.2a.8.8,0,0,0-1.1,0c-1.5,1.3-5.1,4.8-5.2,8.9a5.6,5.6,0,0,0,1.1,3.7,6.6,6.6,0,0,1-1.9-.9Zm3.5.5a5.4,5.4,0,0,1-1.1-3.2c.1-3.1,2.6-5.9,4.1-7.3,1.5,1.5,4,4.3,4,7.5a4.3,4.3,0,0,1-3.8,4.3h-.4a3.7,3.7,0,0,1-2.8-1.3ZM11.6,21.3C12,10.9,23.5,2.5,24.8,1.6c1.3,1,12.8,9.7,12.6,20.4a12.6,12.6,0,0,1-3.7,8.9,9,9,0,0,0,.4-2.8c.1-7.2-6.2-13.4-8.9-15.8a.9.9,0,0,0-1.1,0c-2.7,2.2-9.1,8.2-9.3,15.3a10.2,10.2,0,0,0,.3,3,13.2,13.2,0,0,1-3.5-9.3Zm9.5,14.6a10.6,10.6,0,0,0,3.1.4h.2a11.9,11.9,0,0,0,3.2-.3v2.8H21.1ZM9.7,44.3H13a.8.8,0,0,0,0-1.6H9.9A2.9,2.9,0,0,1,13,40.3l22.6.2A3.1,3.1,0,0,1,38.7,43l-20.9-.3a.9.9,0,0,0-.8.8,1,1,0,0,0,.8.9l21,.2V47L9.7,46.7ZM3.3,38.5a.5.5,0,0,1,.3-.5l3.7-3.7a.9.9,0,0,1,1.2,0,.9.9,0,0,1,0,1.2L5.2,38.7a.5.5,0,0,0-.3.5v7.4H3.2Z" transform="translate(0 0)"/>
          <circle id="Oval" class="cls-1" cx="24.7" cy="4.8" r="0.8"/>
        </g>
      </g>
    </g>
  </g>
</svg>
